<svg 
  width="600" 
  height="500" 
  viewBox="0 0 600 500" 
  xmlns="http://www.w3.org/2000/svg"
  class="graphite-diagram theme-exam-bw"
>
  <defs>
    <marker id="arrowhead" markerWidth="10" markerHeight="7" refX="10" refY="3.5" orient="auto">
      <polygon points="0 0, 10 3.5, 0 7" fill="black" />
    </marker>
  </defs>
  <rect width="100%" height="100%" fill="white" />
  <line x1="70" y1="160" x2="190" y2="160" id="wire-top-0" stroke="#000" stroke-width="2" fill="none" stroke-dasharray="" />
<line x1="240" y1="160" x2="360" y2="160" id="wire-top-1" stroke="#000" stroke-width="2" fill="none" stroke-dasharray="" />
<line x1="410" y1="160" x2="530" y2="160" id="wire-top-end" stroke="#000" stroke-width="2" fill="none" stroke-dasharray="" />
<line x1="190.0" y1="160.0" x2="208.0" y2="160.0" stroke="#000" stroke-width="2" fill="none"/>
<line x1="222.0" y1="160.0" x2="240.0" y2="160.0" stroke="#000" stroke-width="2" fill="none"/>
<line x1="208.0" y1="146.0" x2="208.0" y2="174.0" stroke="#000" stroke-width="2" fill="none"/>
<line x1="222.0" y1="151.0" x2="222.0" y2="169.0" stroke="#000" stroke-width="2" fill="none"/>
<text x="208.0" y="142.0" text-anchor="middle" font-size="11" font-family="sans-serif" fill="#000">+</text>
<text x="222.0" y="147.0" text-anchor="middle" font-size="11" font-family="sans-serif" fill="#000">−</text>
<line x1="360.0" y1="160.0" x2="365.0" y2="160.0" stroke="#000" stroke-width="2" fill="none"/>
<line x1="405.0" y1="160.0" x2="410.0" y2="160.0" stroke="#000" stroke-width="2" fill="none"/>
<rect x="365.0" y="151.0" width="40" height="18" stroke="#000" stroke-width="2" fill="white"/>
<line x1="70" y1="160" x2="70" y2="380" id="wire-left" stroke="#000" stroke-width="2" fill="none" stroke-dasharray="" />
<line x1="530" y1="160" x2="530" y2="380" id="wire-right" stroke="#000" stroke-width="2" fill="none" stroke-dasharray="" />
<line x1="70" y1="380" x2="530" y2="380" id="wire-bottom" stroke="#000" stroke-width="2" fill="none" stroke-dasharray="" />
</svg>