<svg 
  width="600" 
  height="500" 
  viewBox="0 0 600 500" 
  xmlns="http://www.w3.org/2000/svg"
  class="graphite-diagram theme-exam-bw"
>
  <defs>
    <marker id="arrowhead" markerWidth="10" markerHeight="7" refX="10" refY="3.5" orient="auto">
      <polygon points="0 0, 10 3.5, 0 7" fill="black" />
    </marker>
  </defs>
  <rect width="100%" height="100%" fill="white" />
  <line x1="100" y1="110" x2="100" y2="240" id="wire-left-top" stroke="#000" stroke-width="2" fill="none" stroke-dasharray="" />
<line x1="100" y1="290" x2="100" y2="420" id="wire-left-bot" stroke="#000" stroke-width="2" fill="none" stroke-dasharray="" />
<line x1="100.0" y1="240.0" x2="100.0" y2="258.0" stroke="#000" stroke-width="2" fill="none"/>
<line x1="100.0" y1="272.0" x2="100.0" y2="290.0" stroke="#000" stroke-width="2" fill="none"/>
<line x1="86.0" y1="258.0" x2="114.0" y2="258.0" stroke="#000" stroke-width="2" fill="none"/>
<line x1="91.0" y1="272.0" x2="109.0" y2="272.0" stroke="#000" stroke-width="2" fill="none"/>
<text x="82.0" y="258.0" text-anchor="middle" font-size="11" font-family="sans-serif" fill="#000">+</text>
<text x="87.0" y="272.0" text-anchor="middle" font-size="11" font-family="sans-serif" fill="#000">−</text>
<line x1="500" y1="110" x2="500" y2="420" id="wire-right" stroke="#000" stroke-width="2" fill="none" stroke-dasharray="" />
<line x1="100" y1="110" x2="500" y2="110" id="wire-top" stroke="#000" stroke-width="2" fill="none" stroke-dasharray="" />
<line x1="100" y1="420" x2="500" y2="420" id="wire-bottom" stroke="#000" stroke-width="2" fill="none" stroke-dasharray="" />
<line x1="100" y1="110" x2="100" y2="190" id="wire-b1-left-v" stroke="#000" stroke-width="2" fill="none" stroke-dasharray="" />
<line x1="500" y1="110" x2="500" y2="190" id="wire-b1-right-v" stroke="#000" stroke-width="2" fill="none" stroke-dasharray="" />
<line x1="100" y1="190" x2="275" y2="190" id="wire-b1-left-h" stroke="#000" stroke-width="2" fill="none" stroke-dasharray="" />
<line x1="325" y1="190" x2="500" y2="190" id="wire-b1-right-h" stroke="#000" stroke-width="2" fill="none" stroke-dasharray="" />
<line x1="275.0" y1="190.0" x2="280.0" y2="190.0" stroke="#000" stroke-width="2" fill="none"/>
<line x1="320.0" y1="190.0" x2="325.0" y2="190.0" stroke="#000" stroke-width="2" fill="none"/>
<rect x="280.0" y="181.0" width="40" height="18" stroke="#000" stroke-width="2" fill="white"/>
<line x1="100" y1="340" x2="100" y2="420" id="wire-b2-left-v" stroke="#000" stroke-width="2" fill="none" stroke-dasharray="" />
<line x1="500" y1="340" x2="500" y2="420" id="wire-b2-right-v" stroke="#000" stroke-width="2" fill="none" stroke-dasharray="" />
<line x1="100" y1="340" x2="275" y2="340" id="wire-b2-left-h" stroke="#000" stroke-width="2" fill="none" stroke-dasharray="" />
<line x1="325" y1="340" x2="500" y2="340" id="wire-b2-right-h" stroke="#000" stroke-width="2" fill="none" stroke-dasharray="" />
<line x1="275.0" y1="340.0" x2="285.0" y2="340.0" stroke="#000" stroke-width="2" fill="none"/>
<line x1="315.0" y1="340.0" x2="325.0" y2="340.0" stroke="#000" stroke-width="2" fill="none"/>
<circle cx="300.0" cy="340.0" r="15" stroke="#000" stroke-width="2" fill="white"/>
<line x1="291.0" y1="331.0" x2="309.0" y2="349.0" stroke="#000" stroke-width="2" fill="none"/>
<line x1="309.0" y1="331.0" x2="291.0" y2="349.0" stroke="#000" stroke-width="2" fill="none"/>
<circle cx="100" cy="110" r="4" stroke="#000" stroke-width="1" fill="#000" />
<circle cx="500" cy="110" r="4" stroke="#000" stroke-width="1" fill="#000" />
<circle cx="100" cy="420" r="4" stroke="#000" stroke-width="1" fill="#000" />
<circle cx="500" cy="420" r="4" stroke="#000" stroke-width="1" fill="#000" />
<text 
  x="300" 
  y="30" 
  fill="black" 
  font-family="sans-serif" 
  font-size="13" 
  text-anchor="middle"
  
>
  並聯電路
</text>
</svg>