<svg 
  width="600" 
  height="500" 
  viewBox="0 0 600 500" 
  xmlns="http://www.w3.org/2000/svg"
  class="graphite-diagram theme-exam-bw"
>
  <defs>
    <marker id="arrowhead" markerWidth="10" markerHeight="7" refX="10" refY="3.5" orient="auto">
      <polygon points="0 0, 10 3.5, 0 7" fill="black" />
    </marker>
  </defs>
  <rect width="100%" height="100%" fill="white" />
  <line x1="70" y1="160" x2="122" y2="160" id="wire-top-0" stroke="#000" stroke-width="2" fill="none" stroke-dasharray="" />
<line x1="172" y1="160" x2="224" y2="160" id="wire-top-1" stroke="#000" stroke-width="2" fill="none" stroke-dasharray="" />
<line x1="274" y1="160" x2="326" y2="160" id="wire-top-2" stroke="#000" stroke-width="2" fill="none" stroke-dasharray="" />
<line x1="376" y1="160" x2="428" y2="160" id="wire-top-3" stroke="#000" stroke-width="2" fill="none" stroke-dasharray="" />
<line x1="478" y1="160" x2="530" y2="160" id="wire-top-end" stroke="#000" stroke-width="2" fill="none" stroke-dasharray="" />
<line x1="122.0" y1="160.0" x2="140.0" y2="160.0" stroke="#000" stroke-width="2" fill="none"/>
<line x1="154.0" y1="160.0" x2="172.0" y2="160.0" stroke="#000" stroke-width="2" fill="none"/>
<line x1="140.0" y1="146.0" x2="140.0" y2="174.0" stroke="#000" stroke-width="2" fill="none"/>
<line x1="154.0" y1="151.0" x2="154.0" y2="169.0" stroke="#000" stroke-width="2" fill="none"/>
<text x="140.0" y="142.0" text-anchor="middle" font-size="11" font-family="sans-serif" fill="#000">+</text>
<text x="154.0" y="147.0" text-anchor="middle" font-size="11" font-family="sans-serif" fill="#000">−</text>
<line x1="224.0" y1="160.0" x2="237.0" y2="160.0" stroke="#000" stroke-width="2" fill="none"/>
<line x1="261.0" y1="160.0" x2="274.0" y2="160.0" stroke="#000" stroke-width="2" fill="none"/>
<circle cx="237.0" cy="160.0" r="2.5" fill="#000"/>
<circle cx="261.0" cy="160.0" r="2.5" fill="#000"/>
<line x1="237.0" y1="160.0" x2="257.0" y2="147.0" stroke="#000" stroke-width="2" fill="none"/>
<line x1="326.0" y1="160.0" x2="331.0" y2="160.0" stroke="#000" stroke-width="2" fill="none"/>
<line x1="371.0" y1="160.0" x2="376.0" y2="160.0" stroke="#000" stroke-width="2" fill="none"/>
<rect x="331.0" y="151.0" width="40" height="18" stroke="#000" stroke-width="2" fill="white"/>
<line x1="428.0" y1="160.0" x2="438.0" y2="160.0" stroke="#000" stroke-width="2" fill="none"/>
<line x1="468.0" y1="160.0" x2="478.0" y2="160.0" stroke="#000" stroke-width="2" fill="none"/>
<circle cx="453.0" cy="160.0" r="15" stroke="#000" stroke-width="2" fill="white"/>
<line x1="444.0" y1="151.0" x2="462.0" y2="169.0" stroke="#000" stroke-width="2" fill="none"/>
<line x1="462.0" y1="151.0" x2="444.0" y2="169.0" stroke="#000" stroke-width="2" fill="none"/>
<line x1="70" y1="160" x2="70" y2="380" id="wire-left" stroke="#000" stroke-width="2" fill="none" stroke-dasharray="" />
<line x1="530" y1="160" x2="530" y2="380" id="wire-right" stroke="#000" stroke-width="2" fill="none" stroke-dasharray="" />
<line x1="70" y1="380" x2="530" y2="380" id="wire-bottom" stroke="#000" stroke-width="2" fill="none" stroke-dasharray="" />
<text 
  x="300" 
  y="30" 
  fill="black" 
  font-family="sans-serif" 
  font-size="13" 
  text-anchor="middle"
  
>
  串聯電路
</text>
</svg>